# xmcd
#
# Track frame offsets: 
#        150
#        22366
#        42816
#        59408
#        83051
#        109641
#        129534
#        145049
#
# Disc length: 2364 seconds
#
# Revision: 1
# Processed by: cddbd v1.5.2PL0 Copyright (c) Steve Scherf et al.
# Submitted via: ExactAudioCopyFreeDBPlugin 1.0
#
DISCID=69093a08
DTITLE=Smash - Smash
DYEAR=1979
DGENRE=Funk
TTITLE0=Pall Mall Groove
TTITLE1=Anyway
TTITLE2=I'm Gonna Give (My Whole Life To Music)
TTITLE3=Don't Waste My Time
TTITLE4=Where's The Party
TTITLE5=Your Love
TTITLE6=Please Don't Let Me Go
TTITLE7=Funk Freak
EXTD=
EXTT0=
EXTT1=
EXTT2=
EXTT3=
EXTT4=
EXTT5=
EXTT6=
EXTT7=
PLAYORDER=
